<svg t="1744812519583" class="icon" viewBox="0 0 1024 1024" version="1.1" xmlns="http://www.w3.org/2000/svg" p-id="3120" width="200" height="200"><path d="M447.94617 469.695394m70.552743 0l428.688492 0q70.552743 0 70.552742 70.552742l0 413.199121q0 70.552743-70.552742 70.552743l-428.688492 0q-70.552743 0-70.552743-70.552743l0-413.199121q0-70.552743 70.552743-70.552742Z" fill="#ffffff" p-id="3121" data-spm-anchor-id="a313x.collections_detail.0.i25.7fd53a81ijYrNh" class="selected"></path><path d="M846.640793 390.547393L474.09008 17.907146a60.883077 60.883077 0 0 0-43.334426-17.906788c-16.384711 0-31.784548 6.35691-43.42396 17.906788L14.691447 390.547393c-6.088308 7.162715-9.042928 16.205643-8.326656 25.606706 0.716271 9.311529 5.0139 17.906787 12.176615 23.995095 13.251023 11.37081 32.590353 11.281276 46.199512-0.447669l28.471792-28.471792v361.269437c0 33.843828 27.486919 61.330747 61.330747 61.330747h547.858163c33.843828 0 61.330747-27.486919 61.330747-61.330747V406.753036l33.396159 33.396158c7.162715 6.177842 16.295177 9.132462 25.606706 8.326656 9.311529-0.716271 17.906787-5.0139 23.995095-12.176615a34.945096 34.945096 0 0 0 0-45.751842z m-153.013499-53.809896l-0.268602 426.808279H163.496851v-422.600184L430.845188 73.865856l262.87164 262.871641z" p-id="3122"></path><path d="M308.004626 538.994661m41.096077 0l163.130834 0q41.096077 0 41.096077 41.096077l0-0.089533q0 41.096077-41.096077 41.096077l-163.130834 0q-41.096077 0-41.096077-41.096077l0 0.089533q0-41.096077 41.096077-41.096077Z" p-id="3123"></path></svg>